<svg width="28" height="42" viewBox="0 0 28 42" fill="none" xmlns="http://www.w3.org/2000/svg">
<style>
    path {
        fill : black;
    }
    @media (prefers-color-scheme: dark) {
      path {
        fill: white;
      }
    }
</style>
<path d="M25.4535 18.0272L16.6501 13.1422C15.7849 12.6616 14.8217 12.433 13.8633 12.454V2.474C13.8633 1.05562 15.3814 0.124811 16.6244 0.806006C16.6337 0.810671 16.6407 0.815337 16.6501 0.820003L25.4535 5.70501C26.6545 6.37221 27.3984 7.63662 27.3984 9.01067V21.3328C27.3984 19.9588 26.6545 18.6944 25.4535 18.0272Z"/>
<path d="M2.5273 18.0312L11.3308 13.1462C12.9935 12.2247 15.0131 12.2247 16.6735 13.1462L25.4769 18.0312C26.6779 18.6984 27.4219 19.9628 27.4219 21.3369V32.3666C27.4219 33.673 26.7479 34.8861 25.6379 35.5766L16.9043 40.9958C15.1273 42.0993 12.8769 42.0993 11.0976 40.9958L2.36405 35.5766C1.254 34.8861 0.58003 33.673 0.58003 32.3666V21.3369C0.58003 19.9628 1.32396 18.6984 2.52496 18.0312H2.5273ZM7.61349 30.7593L13.9263 34.4685V26.8984L20.3908 23.0678L13.9263 19.3283L7.61349 23.0982V30.7616V30.7593Z"/>
</svg>
